<?xml version="1.0" encoding="UTF-8" standalone="no"?>
<!-- Created with Inkscape (http://www.inkscape.org/) -->

<svg
   width="89.823128mm"
   height="89.823036mm"
   viewBox="0 0 89.823128 89.823036"
   version="1.1"
   id="svg1"
   inkscape:export-filename="false.png"
   inkscape:export-xdpi="8.4833384"
   inkscape:export-ydpi="8.4833384"
   inkscape:version="1.3.2 (1:1.3.2+202311252150+091e20ef0f)"
   sodipodi:docname="false.svg"
   xmlns:inkscape="http://www.inkscape.org/namespaces/inkscape"
   xmlns:sodipodi="http://sodipodi.sourceforge.net/DTD/sodipodi-0.dtd"
   xmlns="http://www.w3.org/2000/svg"
   xmlns:svg="http://www.w3.org/2000/svg">
  <sodipodi:namedview
     id="namedview1"
     pagecolor="#ffffff"
     bordercolor="#666666"
     borderopacity="1.0"
     inkscape:showpageshadow="2"
     inkscape:pageopacity="0.0"
     inkscape:pagecheckerboard="0"
     inkscape:deskcolor="#d1d1d1"
     inkscape:document-units="mm"
     inkscape:zoom="0.7500982"
     inkscape:cx="217.97146"
     inkscape:cy="334.62285"
     inkscape:window-width="1920"
     inkscape:window-height="1024"
     inkscape:window-x="0"
     inkscape:window-y="27"
     inkscape:window-maximized="1"
     inkscape:current-layer="layer1" />
  <defs
     id="defs1">
    <clipPath
       clipPathUnits="userSpaceOnUse"
       id="clipPath2">
      <path
         d="M 0,841.89 H 595.276 V 0 H 0 Z"
         transform="translate(-291.9736,-546.75601)"
         id="path2" />
    </clipPath>
    <clipPath
       clipPathUnits="userSpaceOnUse"
       id="clipPath4">
      <path
         d="M 0,841.89 H 595.276 V 0 H 0 Z"
         transform="translate(-415.50001,-420.88981)"
         id="path4" />
    </clipPath>
    <clipPath
       clipPathUnits="userSpaceOnUse"
       id="clipPath6">
      <path
         d="M 0,841.89 H 595.276 V 0 H 0 Z"
         transform="translate(-395.24221,-420.88981)"
         id="path6" />
    </clipPath>
    <clipPath
       clipPathUnits="userSpaceOnUse"
       id="clipPath8">
      <path
         d="M 0,841.89 H 595.276 V 0 H 0 Z"
         transform="translate(-257.9092,-363.92011)"
         id="path8" />
    </clipPath>
    <clipPath
       clipPathUnits="userSpaceOnUse"
       id="clipPath10">
      <path
         d="M 0,841.89 H 595.276 V 0 H 0 Z"
         transform="translate(-354.96971,-380.79901)"
         id="path10" />
    </clipPath>
  </defs>
  <g
     inkscape:label="Layer 1"
     inkscape:groupmode="layer"
     id="layer1"
     transform="translate(-47.095829,-59.795832)">
    <path
       id="path1"
       d="m 0,0 c 3.314,1.923 8.738,1.923 12.053,0 3.314,-1.923 8.992,-2.482 12.618,-1.243 3.626,1.24 8.945,0.181 11.821,-2.351 2.876,-2.532 8.336,-4.189 12.134,-3.681 3.798,0.508 8.809,-1.567 11.135,-4.612 2.326,-3.045 7.358,-5.735 11.182,-5.977 3.825,-0.243 8.334,-3.256 10.022,-6.696 1.687,-3.44 6.098,-7.06 9.802,-8.044 3.703,-0.984 7.538,-4.819 8.521,-8.522 0.984,-3.704 4.605,-8.114 8.044,-9.802 3.44,-1.688 6.454,-6.197 6.696,-10.021 0.243,-3.824 2.933,-8.856 5.978,-11.183 3.044,-2.326 5.12,-7.337 4.612,-11.135 -0.509,-3.798 1.149,-9.258 3.681,-12.133 2.532,-2.876 3.59,-8.196 2.35,-11.821 -1.238,-3.626 -0.679,-9.304 1.244,-12.619 1.922,-3.314 1.922,-8.738 0,-12.053 -1.923,-3.314 -2.482,-8.992 -1.244,-12.618 1.24,-3.626 0.182,-8.945 -2.35,-11.821 -2.532,-2.876 -4.19,-8.336 -3.681,-12.134 0.508,-3.798 -1.568,-8.808 -4.612,-11.135 -3.045,-2.326 -5.735,-7.358 -5.978,-11.182 -0.242,-3.824 -3.256,-8.334 -6.696,-10.022 -3.439,-1.687 -7.06,-6.097 -8.044,-9.801 -0.983,-3.704 -4.818,-7.539 -8.521,-8.522 -3.704,-0.984 -8.115,-4.604 -9.802,-8.044 -1.688,-3.44 -6.197,-6.454 -10.022,-6.696 -3.824,-0.243 -8.856,-2.933 -11.182,-5.978 -2.326,-3.044 -7.337,-5.12 -11.135,-4.612 -3.798,0.508 -9.258,-1.148 -12.134,-3.681 -2.876,-2.532 -8.195,-3.589 -11.821,-2.35 -3.626,1.238 -9.304,0.679 -12.618,-1.243 -3.315,-1.923 -8.739,-1.923 -12.053,0 -3.314,1.922 -8.993,2.481 -12.619,1.243 -3.625,-1.239 -8.945,-0.182 -11.82,2.35 -2.876,2.533 -8.336,4.189 -12.134,3.681 -3.798,-0.508 -8.809,1.568 -11.135,4.612 -2.327,3.045 -7.358,5.735 -11.183,5.978 -3.824,0.242 -8.333,3.256 -10.021,6.696 -1.688,3.44 -6.098,7.06 -9.801,8.044 -3.704,0.983 -7.538,4.818 -8.523,8.522 -0.984,3.704 -4.604,8.114 -8.044,9.801 -3.44,1.688 -6.453,6.198 -6.696,10.022 -0.242,3.824 -2.932,8.856 -5.977,11.182 -3.045,2.327 -5.12,7.337 -4.612,11.135 0.508,3.798 -1.148,9.258 -3.681,12.134 -2.532,2.876 -3.59,8.195 -2.351,11.821 1.239,3.626 0.68,9.304 -1.243,12.618 -1.923,3.315 -1.923,8.739 0,12.053 1.923,3.315 2.482,8.993 1.243,12.619 -1.239,3.625 -0.181,8.945 2.351,11.821 2.533,2.875 4.189,8.335 3.681,12.133 -0.508,3.798 1.567,8.809 4.612,11.135 3.045,2.327 5.735,7.359 5.977,11.183 0.243,3.824 3.256,8.333 6.696,10.021 3.44,1.688 7.06,6.098 8.044,9.802 0.985,3.703 4.819,7.538 8.523,8.522 3.703,0.984 8.113,4.604 9.801,8.044 1.688,3.44 6.197,6.453 10.021,6.696 3.825,0.242 8.856,2.932 11.183,5.977 2.326,3.045 7.337,5.12 11.135,4.612 3.798,-0.508 9.258,1.149 12.134,3.681 2.875,2.532 8.195,3.591 11.82,2.351 C -8.993,-2.482 -3.314,-1.923 0,0"
       style="fill:#a50f08;fill-opacity:1;fill-rule:nonzero;stroke:none"
       transform="matrix(0.35277776,0,0,-0.35277776,89.881509,60.304626)"
       clip-path="url(#clipPath2)" />
    <path
       id="path3"
       d="m 0,0 c 0,-64.894 -52.606,-117.5 -117.5,-117.5 -64.894,0 -117.5,52.606 -117.5,117.5 0,64.894 52.606,117.5 117.5,117.5 C -52.606,117.5 0,64.894 0,0"
       style="fill:#e30613;fill-opacity:1;fill-rule:nonzero;stroke:none"
       transform="matrix(0.35277776,0,0,-0.35277776,133.45888,104.70742)"
       clip-path="url(#clipPath4)" />
    <path
       id="path5"
       d="m 0,0 c 0,-53.705 -43.537,-97.242 -97.242,-97.242 -53.706,0 -97.242,43.537 -97.242,97.242 0,53.706 43.536,97.242 97.242,97.242 C -43.537,97.242 0,53.706 0,0 Z"
       style="fill:none;stroke:#ffffff;stroke-width:3;stroke-linecap:butt;stroke-linejoin:miter;stroke-miterlimit:10;stroke-dasharray:none;stroke-opacity:1"
       transform="matrix(0.35277776,0,0,-0.35277776,126.31238,104.70742)"
       clip-path="url(#clipPath6)" />
    <path
       id="path7"
       d="M 0,0 -16.879,16.879 80.182,113.94 97.061,97.061 Z"
       style="fill:#ffffff;fill-opacity:1;fill-rule:nonzero;stroke:none"
       transform="matrix(0.35277776,0,0,-0.35277776,77.864346,124.80507)"
       clip-path="url(#clipPath8)" />
    <path
       id="path9"
       d="m 0,0 -16.879,-16.879 -97.061,97.061 16.879,16.879 z"
       style="fill:#ffffff;fill-opacity:1;fill-rule:nonzero;stroke:none"
       transform="matrix(0.35277776,0,0,-0.35277776,112.10513,118.85057)"
       clip-path="url(#clipPath10)" />
  </g>
</svg>
